<svg xmlns="http://www.w3.org/2000/svg" version="1.1" xmlns:xlink="http://www.w3.org/1999/xlink" xmlns:svgjs="http://svgjs.dev/svgjs" width="1440" height="560" preserveAspectRatio="none" viewBox="0 0 1440 560"><g mask="url(&quot;#SvgjsMask1406&quot;)" fill="none"><rect width="1440" height="560" x="0" y="0" fill="url(&quot;#SvgjsLinearGradient1407&quot;)"></rect><path d="M1497.083,257.524C1550.921,261.247,1609.163,247.357,1637.281,201.294C1666.315,153.73,1656.291,92.719,1626.384,45.699C1598.65,2.097,1548.758,-18.956,1497.083,-19.123C1445.075,-19.291,1391.128,-0.855,1366.324,44.857C1342.361,89.017,1360.557,141.18,1386.873,183.98C1411.666,224.304,1449.86,254.259,1497.083,257.524" fill="rgba(216, 125, 15, 0.4)" class="triangle-float3"></path><path d="M214.78 425.38 a136.91 136.91 0 1 0 273.82 0 a136.91 136.91 0 1 0 -273.82 0z" fill="rgba(216, 125, 15, 0.4)" class="triangle-float1"></path><path d="M-55.57 6.6 a170.81 170.81 0 1 0 341.62 0 a170.81 170.81 0 1 0 -341.62 0z" fill="rgba(216, 125, 15, 0.4)" class="triangle-float2"></path><path d="M863.665,151.247C896.804,148.516,921.811,125.589,939.684,97.55C959.498,66.465,977.842,30.163,962.094,-3.167C944.486,-40.434,904.821,-65.595,863.665,-63.345C825.364,-61.251,801.445,-26.554,782.266,6.665C763.087,39.884,743.516,78.739,762.334,112.164C781.37,145.976,824.994,154.434,863.665,151.247" fill="rgba(216, 125, 15, 0.4)" class="triangle-float3"></path><path d="M569.234,327.024C621.029,326.524,653.716,277.375,678.768,232.039C702.727,188.681,720.065,138.835,697.628,94.671C673.298,46.781,622.95,16.205,569.234,16.435C515.888,16.664,467.349,48.437,442.733,95.764C419.809,139.839,432.133,190.605,455.974,234.19C481.082,280.092,516.916,327.529,569.234,327.024" fill="rgba(216, 125, 15, 0.4)" class="triangle-float3"></path><path d="M820.562,506.97C878.753,506.922,942.093,493.383,970.078,442.363C997.366,392.613,973.354,333.195,941.715,286.092C914.201,245.13,869.855,222.024,820.562,219.768C766.303,217.285,708.872,228.985,678.55,274.049C644.895,324.067,639.238,391.133,670.622,442.607C700.969,492.38,762.267,507.018,820.562,506.97" fill="rgba(216, 125, 15, 0.4)" class="triangle-float3"></path><path d="M927.04 413.57 a160.19 160.19 0 1 0 320.38 0 a160.19 160.19 0 1 0 -320.38 0z" fill="rgba(216, 125, 15, 0.4)" class="triangle-float3"></path><path d="M257.41 423.03 a100.09 100.09 0 1 0 200.18 0 a100.09 100.09 0 1 0 -200.18 0z" fill="rgba(216, 125, 15, 0.4)" class="triangle-float3"></path><path d="M860.2 468.62 a97.32 97.32 0 1 0 194.64 0 a97.32 97.32 0 1 0 -194.64 0z" fill="rgba(216, 125, 15, 0.4)" class="triangle-float2"></path><path d="M-135.74 496.03 a155.83 155.83 0 1 0 311.66 0 a155.83 155.83 0 1 0 -311.66 0z" fill="rgba(216, 125, 15, 0.4)" class="triangle-float1"></path><path d="M673.99 472.33 a119.6 119.6 0 1 0 239.2 0 a119.6 119.6 0 1 0 -239.2 0z" fill="rgba(216, 125, 15, 0.4)" class="triangle-float2"></path><path d="M-59.13 420.46 a142.57 142.57 0 1 0 285.14 0 a142.57 142.57 0 1 0 -285.14 0z" fill="rgba(216, 125, 15, 0.4)" class="triangle-float1"></path><path d="M1353.531,134.148C1372.753,135.259,1394.302,130.195,1403.14,113.089C1411.576,96.76,1399.873,78.901,1390.123,63.321C1381.214,49.085,1370.293,34.853,1353.531,33.814C1335.15,32.675,1316.988,42.089,1308.139,58.24C1299.578,73.865,1303.806,92.586,1312.95,107.877C1321.814,122.7,1336.289,133.152,1353.531,134.148" fill="rgba(216, 125, 15, 0.4)" class="triangle-float2"></path><path d="M504.15,18.173C524.17,18.707,547.375,20.896,558.439,4.203C570.222,-13.575,564.137,-37.163,552.797,-55.227C542.224,-72.069,524.035,-82.044,504.15,-82.277C483.826,-82.515,463.834,-73.885,453.49,-56.389C442.975,-38.603,443.047,-15.657,454.659,1.433C465.149,16.872,485.492,17.675,504.15,18.173" fill="rgba(216, 125, 15, 0.4)" class="triangle-float2"></path><path d="M1248.972,480.914C1297.125,479.785,1339.223,450.549,1362.681,408.482C1385.513,367.539,1387.09,317.2,1362.535,277.267C1339.027,239.036,1293.792,225.887,1248.972,223.56C1198.315,220.929,1140.532,221.729,1112.962,264.307C1083.783,309.371,1097.085,368.575,1125.634,414.041C1152.289,456.491,1198.861,482.089,1248.972,480.914" fill="rgba(216, 125, 15, 0.4)" class="triangle-float2"></path></g><defs><mask id="SvgjsMask1406"><rect width="1440" height="560" fill="#ffffff"></rect></mask><linearGradient x1="100%" y1="50%" x2="0%" y2="50%" gradientUnits="userSpaceOnUse" id="SvgjsLinearGradient1407"><stop stop-color="rgba(164, 83, 204, 1)" offset="0"></stop><stop stop-color="rgba(214, 0, 0, 0.89)" offset="1"></stop></linearGradient><style>
                @keyframes float1 {
                    0%{transform: translate(0, 0)}
                    50%{transform: translate(-10px, 0)}
                    100%{transform: translate(0, 0)}
                }

                .triangle-float1 {
                    animation: float1 5s infinite;
                }

                @keyframes float2 {
                    0%{transform: translate(0, 0)}
                    50%{transform: translate(-5px, -5px)}
                    100%{transform: translate(0, 0)}
                }

                .triangle-float2 {
                    animation: float2 4s infinite;
                }

                @keyframes float3 {
                    0%{transform: translate(0, 0)}
                    50%{transform: translate(0, -10px)}
                    100%{transform: translate(0, 0)}
                }

                .triangle-float3 {
                    animation: float3 6s infinite;
                }
            </style></defs></svg>