<svg xmlns="http://www.w3.org/2000/svg" viewBox="0 0 1920 1080"><g transform="
          rotate(21 960 540) 
          translate(-547.8518433279594 -308.1666618719771)
          scale(1.5706790034666243)
        "><rect width="1920" height="1080" fill="rgb(29, 0, 31)"></rect><g transform="translate(0, 0)"><path fill="rgb(47, 0, 28)" fill-opacity="1" d="M0,117.648L40,116.692C80,115.736,160,113.824,240,113.527C320,113.231,400,114.55,480,114.698C560,114.847,640,113.824,720,101.061C800,88.298,880,63.794,960,61.725C1040,59.656,1120,80.02,1200,73.779C1280,67.537,1360,34.69,1440,32.827C1520,30.964,1600,60.086,1680,67.34C1760,74.593,1840,59.979,1880,52.672L1920,45.364L1920,1080L1880,1080C1840,1080,1760,1080,1680,1080C1600,1080,1520,1080,1440,1080C1360,1080,1280,1080,1200,1080C1120,1080,1040,1080,960,1080C880,1080,800,1080,720,1080C640,1080,560,1080,480,1080C400,1080,320,1080,240,1080C160,1080,80,1080,40,1080L0,1080Z"></path></g><g transform="translate(0, 120)"><path fill="rgb(65, 0, 24)" fill-opacity="1" d="M0,8.045L40,20.686C80,33.328,160,58.61,240,63.168C320,67.727,400,51.562,480,43.471C560,35.38,640,35.363,720,47.091C800,58.819,880,82.292,960,94.899C1040,107.506,1120,109.246,1200,94.892C1280,80.537,1360,50.088,1440,37.541C1520,24.994,1600,30.351,1680,42.091C1760,53.831,1840,71.955,1880,81.017L1920,90.079L1920,960L1880,960C1840,960,1760,960,1680,960C1600,960,1520,960,1440,960C1360,960,1280,960,1200,960C1120,960,1040,960,960,960C880,960,800,960,720,960C640,960,560,960,480,960C400,960,320,960,240,960C160,960,80,960,40,960L0,960Z"></path></g><g transform="translate(0, 240)"><path fill="rgb(82, 0, 21)" fill-opacity="1" d="M0,112.635L40,103.931C80,95.226,160,77.817,240,60.104C320,42.391,400,24.374,480,14.455C560,4.535,640,2.714,720,13.693C800,24.672,880,48.453,960,55.927C1040,63.402,1120,54.571,1200,45.392C1280,36.214,1360,26.687,1440,24.085C1520,21.483,1600,25.804,1680,28.869C1760,31.935,1840,33.744,1880,34.649L1920,35.553L1920,840L1880,840C1840,840,1760,840,1680,840C1600,840,1520,840,1440,840C1360,840,1280,840,1200,840C1120,840,1040,840,960,840C880,840,800,840,720,840C640,840,560,840,480,840C400,840,320,840,240,840C160,840,80,840,40,840L0,840Z"></path></g><g transform="translate(0, 360)"><path fill="rgb(100, 0, 17)" fill-opacity="1" d="M0,93.774L40,97.287C80,100.8,160,107.825,240,112.039C320,116.254,400,117.656,480,109.541C560,101.426,640,83.794,720,69.765C800,55.736,880,45.311,960,36.212C1040,27.113,1120,19.341,1200,30.824C1280,42.308,1360,73.048,1440,90.722C1520,108.396,1600,113.004,1680,115.472C1760,117.939,1840,118.266,1880,118.429L1920,118.593L1920,720L1880,720C1840,720,1760,720,1680,720C1600,720,1520,720,1440,720C1360,720,1280,720,1200,720C1120,720,1040,720,960,720C880,720,800,720,720,720C640,720,560,720,480,720C400,720,320,720,240,720C160,720,80,720,40,720L0,720Z"></path></g><g transform="translate(0, 480)"><path fill="rgb(118, 0, 14)" fill-opacity="1" d="M0,76.58L40,74.837C80,73.094,160,69.608,240,62.486C320,55.364,400,44.606,480,53.103C560,61.601,640,89.355,720,100.929C800,112.503,880,107.897,960,106.588C1040,105.278,1120,107.265,1200,104.96C1280,102.655,1360,96.057,1440,79.596C1520,63.136,1600,36.814,1680,39.966C1760,43.118,1840,75.745,1880,92.058L1920,108.371L1920,600L1880,600C1840,600,1760,600,1680,600C1600,600,1520,600,1440,600C1360,600,1280,600,1200,600C1120,600,1040,600,960,600C880,600,800,600,720,600C640,600,560,600,480,600C400,600,320,600,240,600C160,600,80,600,40,600L0,600Z"></path></g><g transform="translate(0, 600)"><path fill="rgb(136, 0, 10)" fill-opacity="1" d="M0,54.968L40,48.732C80,42.495,160,30.023,240,29.766C320,29.509,400,41.467,480,58.131C560,74.795,640,96.165,720,97.446C800,98.728,880,79.922,960,68.84C1040,57.758,1120,54.4,1200,45.477C1280,36.553,1360,22.064,1440,14.648C1520,7.232,1600,6.889,1680,13.413C1760,19.936,1840,33.327,1880,40.022L1920,46.717L1920,480L1880,480C1840,480,1760,480,1680,480C1600,480,1520,480,1440,480C1360,480,1280,480,1200,480C1120,480,1040,480,960,480C880,480,800,480,720,480C640,480,560,480,480,480C400,480,320,480,240,480C160,480,80,480,40,480L0,480Z"></path></g><g transform="translate(0, 720)"><path fill="rgb(153, 0, 7)" fill-opacity="1" d="M0,115.433L40,111.748C80,108.062,160,100.69,240,84.183C320,67.677,400,42.037,480,45.191C560,48.346,640,80.296,720,85.287C800,90.278,880,68.31,960,63.161C1040,58.012,1120,69.684,1200,70.403C1280,71.122,1360,60.888,1440,62.09C1520,63.292,1600,75.93,1680,82.077C1760,88.224,1840,87.881,1880,87.709L1920,87.538L1920,360L1880,360C1840,360,1760,360,1680,360C1600,360,1520,360,1440,360C1360,360,1280,360,1200,360C1120,360,1040,360,960,360C880,360,800,360,720,360C640,360,560,360,480,360C400,360,320,360,240,360C160,360,80,360,40,360L0,360Z"></path></g><g transform="translate(0, 840)"><path fill="rgb(171, 0, 3)" fill-opacity="1" d="M0,53.191L40,55.612C80,58.032,160,62.874,240,65.241C320,67.607,400,67.499,480,66.321C560,65.144,640,62.897,720,60.926C800,58.954,880,57.258,960,49.186C1040,41.115,1120,26.668,1200,18.042C1280,9.415,1360,6.608,1440,10.616C1520,14.624,1600,25.447,1680,32.251C1760,39.055,1840,41.84,1880,43.233L1920,44.625L1920,240L1880,240C1840,240,1760,240,1680,240C1600,240,1520,240,1440,240C1360,240,1280,240,1200,240C1120,240,1040,240,960,240C880,240,800,240,720,240C640,240,560,240,480,240C400,240,320,240,240,240C160,240,80,240,40,240L0,240Z"></path></g><g transform="translate(0, 960)"><path fill="rgb(189, 0, 0)" fill-opacity="1" d="M0,40.057L40,44.376C80,48.694,160,57.331,240,63.555C320,69.778,400,73.589,480,79.554C560,85.519,640,93.639,720,92.252C800,90.865,880,79.972,960,68.708C1040,57.444,1120,45.81,1200,46.1C1280,46.39,1360,58.605,1440,56.664C1520,54.724,1600,38.629,1680,42.997C1760,47.365,1840,72.197,1880,84.613L1920,97.029L1920,120L1880,120C1840,120,1760,120,1680,120C1600,120,1520,120,1440,120C1360,120,1280,120,1200,120C1120,120,1040,120,960,120C880,120,800,120,720,120C640,120,560,120,480,120C400,120,320,120,240,120C160,120,80,120,40,120L0,120Z"></path></g></g></svg>